<svg width="32" height="32" viewBox="0 0 32 32" xmlns="http://www.w3.org/2000/svg">
<path d="M6 8C6 6.89375 6.76607 6 7.71429 6H24.2857C25.2339 6 26 6.89375 26 8C26 9.10625 25.2339 10 24.2857 10H7.71429C6.76607 10 6 9.10625 6 8ZM6 16C6 14.8937 6.76607 14 7.71429 14H24.2857C25.2339 14 26 14.8937 26 16C26 17.1063 25.2339 18 24.2857 18H7.71429C6.76607 18 6 17.1063 6 16ZM26 24C26 25.1063 25.2339 26 24.2857 26H7.71429C6.76607 26 6 25.1063 6 24C6 22.8937 6.76607 22 7.71429 22H24.2857C25.2339 22 26 22.8937 26 24Z"/>
</svg>
