<svg width="32" height="32" viewBox="0 0 32 32" xmlns="http://www.w3.org/2000/svg">
<path d="M9.2562 6.55868C8.5113 5.81378 7.30358 5.81377 6.55868 6.55867C5.81378 7.30357 5.81378 8.5113 6.55868 9.2562L13.3025 16L6.55867 22.7438C5.81378 23.4887 5.81377 24.6964 6.55867 25.4413C7.30357 26.1862 8.5113 26.1862 9.2562 25.4413L16 18.6975L22.7438 25.4413C23.4887 26.1862 24.6964 26.1862 25.4413 25.4413C26.1862 24.6964 26.1862 23.4887 25.4413 22.7438L18.6975 16L25.4413 9.2562C26.1862 8.5113 26.1862 7.30357 25.4413 6.55867C24.6964 5.81377 23.4887 5.81378 22.7438 6.55868L16 13.3025L9.2562 6.55868Z"/>
</svg>
