<svg width="24" height="24" viewBox="0 0 24 24" xmlns="http://www.w3.org/2000/svg">
<path d="M16.3756 10.6867C16.3756 11.9416 15.9681 13.1008 15.2818 14.0413L18.7436 17.5052C19.0855 17.8469 19.0855 18.4019 18.7436 18.7437C18.4018 19.0854 17.8467 19.0854 17.5049 18.7437L14.043 15.2797C13.1023 15.9687 11.9429 16.3733 10.6878 16.3733C7.54583 16.3733 5 13.828 5 10.6867C5 7.54533 7.54583 5 10.6878 5C13.8297 5 16.3756 7.54533 16.3756 10.6867ZM10.6878 14.6236C11.2049 14.6236 11.7169 14.5218 12.1947 14.3239C12.6724 14.1261 13.1065 13.8361 13.4721 13.4705C13.8378 13.1049 14.1278 12.6709 14.3257 12.1933C14.5236 11.7156 14.6255 11.2037 14.6255 10.6867C14.6255 10.1697 14.5236 9.65772 14.3257 9.18007C14.1278 8.70242 13.8378 8.26842 13.4721 7.90284C13.1065 7.53726 12.6724 7.24727 12.1947 7.04942C11.7169 6.85158 11.2049 6.74974 10.6878 6.74974C10.1707 6.74974 9.65863 6.85158 9.18089 7.04942C8.70315 7.24727 8.26906 7.53726 7.90341 7.90284C7.53776 8.26842 7.24771 8.70242 7.04982 9.18007C6.85194 9.65772 6.75009 10.1697 6.75009 10.6867C6.75009 11.2037 6.85194 11.7156 7.04982 12.1933C7.24771 12.6709 7.53776 13.1049 7.90341 13.4705C8.26906 13.8361 8.70315 14.1261 9.18089 14.3239C9.65863 14.5218 10.1707 14.6236 10.6878 14.6236Z"/>
</svg>
