<?xml version="1.0" standalone="no"?>
<!DOCTYPE svg PUBLIC "-//W3C//DTD SVG 20010904//EN"
 "http://www.w3.org/TR/2001/REC-SVG-20010904/DTD/svg10.dtd">
<svg version="1.0" xmlns="http://www.w3.org/2000/svg"
 width="700.000000pt" height="700.000000pt" viewBox="0 0 700.000000 700.000000"
 preserveAspectRatio="xMidYMid meet">
<metadata>
Created by potrace 1.14, written by Peter Selinger 2001-2017
</metadata>
<g transform="translate(0.000000,700.000000) scale(0.100000,-0.100000)"
fill="#000000" stroke="none">
<path d="M3357 6364 c-1 -1 -32 -5 -68 -8 -95 -10 -280 -50 -384 -84 -360
-119 -688 -356 -913 -660 -118 -160 -215 -347 -277 -537 -19 -58 -36 -115 -39
-127 -2 -13 -11 -59 -20 -103 -36 -182 -41 -431 -12 -640 17 -121 71 -302 135
-455 123 -295 375 -601 652 -792 235 -163 528 -276 814 -315 113 -15 461 -9
555 10 165 34 242 56 358 101 273 105 515 273 718 498 55 60 164 202 164 213
0 3 11 21 24 38 51 69 150 277 192 405 63 195 92 376 92 587 -1 191 -17 320
-64 495 -135 500 -474 920 -944 1168 -134 71 -340 144 -470 168 -14 2 -47 9
-75 14 -87 16 -176 23 -308 24 -70 1 -129 1 -130 0z m278 -1095 c177 -32 360
-145 473 -291 59 -77 117 -199 142 -303 19 -75 22 -107 17 -205 -3 -63 -12
-142 -21 -175 -99 -356 -420 -594 -786 -581 -118 5 -124 6 -230 41 -138 46
-287 156 -376 276 -178 242 -199 585 -52 849 107 193 302 338 518 387 8 2 42
6 75 9 33 4 61 8 63 9 5 5 119 -5 177 -16z"/>
<path d="M763 1742 l-23 -3 0 -540 0 -539 2747 2 2747 3 0 533 c1 294 -1 537
-4 540 -5 7 -5423 10 -5467 4z"/>
</g>
</svg>
