<svg width="500" height="89" viewBox="0 0 500 89" fill="none" xmlns="http://www.w3.org/2000/svg">
<path d="M203.254 62.8616C198.939 62.8616 195.072 62.1611 191.654 60.76C188.235 59.359 185.489 57.2854 183.415 54.5393C181.398 51.7932 180.333 48.4867 180.221 44.6198H195.521C195.745 46.8055 196.501 48.4867 197.79 49.6636C199.079 50.7845 200.761 51.3449 202.834 51.3449C204.964 51.3449 206.645 50.8685 207.878 49.9158C209.111 48.9071 209.727 47.534 209.727 45.7967C209.727 44.3396 209.223 43.1347 208.214 42.182C207.261 41.2292 206.057 40.4446 204.599 39.8282C203.198 39.2117 201.181 38.5112 198.547 37.7266C194.736 36.5497 191.626 35.3728 189.216 34.1959C186.806 33.019 184.732 31.2817 182.995 28.9839C181.258 26.6862 180.389 23.6879 180.389 19.9891C180.389 14.497 182.379 10.2097 186.358 7.12737C190.337 3.98899 195.521 2.4198 201.909 2.4198C208.41 2.4198 213.65 3.98899 217.629 7.12737C221.608 10.2097 223.738 14.525 224.018 20.0732H208.466C208.354 18.1677 207.654 16.6826 206.365 15.6178C205.076 14.497 203.423 13.9365 201.405 13.9365C199.668 13.9365 198.267 14.4129 197.202 15.3656C196.137 16.2623 195.605 17.5793 195.605 19.3166C195.605 21.2221 196.501 22.7072 198.295 23.772C200.088 24.8368 202.89 25.9857 206.701 27.2186C210.512 28.5076 213.594 29.7405 215.948 30.9174C218.358 32.0943 220.431 33.8036 222.169 36.0453C223.906 38.287 224.775 41.1732 224.775 44.7039C224.775 48.0664 223.906 51.1207 222.169 53.8668C220.487 56.6129 218.022 58.7986 214.771 60.4238C211.521 62.049 207.682 62.8616 203.254 62.8616Z" fill="#222529"/>
<path d="M281.838 15.3656L252.415 84.5501H236.948L247.708 60.676L228.625 15.3656H244.682L255.526 44.7039L266.286 15.3656H281.838Z" fill="#222529"/>
<path d="M306.419 62.9457C302.327 62.9457 298.685 62.2452 295.49 60.8441C292.296 59.443 289.774 57.5376 287.925 55.1278C286.075 52.6619 285.038 49.9158 284.814 46.8895H299.021C299.189 48.5148 299.946 49.8318 301.291 50.8405C302.636 51.8493 304.289 52.3537 306.25 52.3537C308.044 52.3537 309.417 52.0174 310.37 51.3449C311.378 50.6164 311.883 49.6916 311.883 48.5708C311.883 47.2258 311.182 46.245 309.781 45.6286C308.38 44.9561 306.11 44.2275 302.972 43.4429C299.609 42.6583 296.807 41.8457 294.566 41.0051C292.324 40.1084 290.39 38.7353 288.765 36.8859C287.14 34.9805 286.327 32.4306 286.327 29.2361C286.327 26.5461 287.056 24.1082 288.513 21.9226C290.026 19.6809 292.212 17.9155 295.07 16.6266C297.984 15.3376 301.431 14.6931 305.41 14.6931C311.294 14.6931 315.918 16.1502 319.28 19.0644C322.699 21.9786 324.66 25.8456 325.165 30.6652H311.883C311.659 29.04 310.93 27.751 309.697 26.7983C308.52 25.8456 306.951 25.3692 304.99 25.3692C303.308 25.3692 302.019 25.7055 301.123 26.378C300.226 26.9944 299.778 27.8631 299.778 28.9839C299.778 30.329 300.478 31.3377 301.879 32.0102C303.336 32.6827 305.578 33.3553 308.604 34.0278C312.079 34.9244 314.909 35.8211 317.095 36.7178C319.28 37.5584 321.186 38.9595 322.811 40.921C324.492 42.8264 325.361 45.4044 325.417 48.6549C325.417 51.401 324.632 53.8668 323.063 56.0525C321.55 58.1821 319.336 59.8634 316.422 61.0963C313.564 62.3292 310.229 62.9457 306.419 62.9457Z" fill="#222529"/>
<path d="M360.656 50.0839V62.2732H353.342C348.13 62.2732 344.067 61.0122 341.153 58.4903C338.239 55.9124 336.781 51.7372 336.781 45.9648V27.3027H331.065V15.3656H336.781V3.93295H351.156V15.3656H360.572V27.3027H351.156V46.1329C351.156 47.534 351.493 48.5428 352.165 49.1593C352.838 49.7757 353.958 50.0839 355.528 50.0839H360.656Z" fill="#222529"/>
<path d="M413.18 38.0628C413.18 39.4079 413.096 40.8089 412.928 42.266H380.396C380.62 45.1802 381.544 47.4219 383.17 48.9911C384.851 50.5043 386.896 51.2608 389.306 51.2608C392.893 51.2608 395.387 49.7477 396.788 46.7214H412.088C411.303 49.8037 409.874 52.5778 407.8 55.0437C405.783 57.5096 403.233 59.443 400.151 60.8441C397.068 62.2452 393.622 62.9457 389.811 62.9457C385.215 62.9457 381.124 61.965 377.537 60.0035C373.951 58.042 371.149 55.2399 369.131 51.5971C367.113 47.9543 366.105 43.6951 366.105 38.8194C366.105 33.9437 367.085 29.6845 369.047 26.0417C371.064 22.3989 373.867 19.5968 377.453 17.6353C381.04 15.6738 385.159 14.6931 389.811 14.6931C394.35 14.6931 398.385 15.6458 401.916 17.5513C405.447 19.4567 408.193 22.1748 410.154 25.7055C412.172 29.2361 413.18 33.3553 413.18 38.0628ZM398.469 34.28C398.469 31.8141 397.629 29.8526 395.947 28.3955C394.266 26.9384 392.164 26.2098 389.643 26.2098C387.233 26.2098 385.187 26.9104 383.506 28.3114C381.881 29.7125 380.872 31.702 380.48 34.28H398.469Z" fill="#222529"/>
<path d="M480.918 14.8612C486.746 14.8612 491.369 16.6266 494.788 20.1572C498.263 23.6879 500 28.5916 500 34.8684V62.2732H485.709V36.8019C485.709 33.7756 484.897 31.4498 483.271 29.8246C481.702 28.1433 479.516 27.3027 476.714 27.3027C473.912 27.3027 471.699 28.1433 470.073 29.8246C468.504 31.4498 467.72 33.7756 467.72 36.8019V62.2732H453.429V36.8019C453.429 33.7756 452.616 31.4498 450.991 29.8246C449.422 28.1433 447.236 27.3027 444.434 27.3027C441.632 27.3027 439.418 28.1433 437.793 29.8246C436.224 31.4498 435.439 33.7756 435.439 36.8019V62.2732H421.064V15.3656H435.439V21.2501C436.896 19.2886 438.802 17.7474 441.155 16.6266C443.509 15.4497 446.171 14.8612 449.141 14.8612C452.672 14.8612 455.81 15.6178 458.557 17.131C461.359 18.6441 463.544 20.8017 465.114 23.6039C466.739 21.0259 468.952 18.9243 471.755 17.2991C474.557 15.6739 477.611 14.8612 480.918 14.8612Z" fill="#222529"/>
<path d="M121.04 21.9587C122.385 19.7731 124.318 18.0077 126.84 16.6627C129.362 15.3177 132.248 14.6452 135.499 14.6452C139.366 14.6452 142.868 15.6259 146.007 17.5874C149.145 19.5489 151.611 22.351 153.404 25.9938C155.254 29.6365 156.179 33.8677 156.179 38.6874C156.179 43.5071 155.254 47.7663 153.404 51.4651C151.611 55.1079 149.145 57.938 146.007 59.9555C142.868 61.917 139.366 62.8978 135.499 62.8978C132.192 62.8978 129.306 62.2533 126.84 60.9643C124.374 59.6193 122.441 57.8539 121.04 55.6683V62.2253H106.665V0.0180664H121.04V21.9587ZM141.551 38.6874C141.551 35.1007 140.543 32.2985 138.525 30.281C136.564 28.2074 134.126 27.1707 131.212 27.1707C128.353 27.1707 125.916 28.2074 123.898 30.281C121.937 32.3546 120.956 35.1847 120.956 38.7715C120.956 42.3582 121.937 45.1883 123.898 47.2619C125.916 49.3355 128.353 50.3723 131.212 50.3723C134.07 50.3723 136.508 49.3355 138.525 47.2619C140.543 45.1323 141.551 42.2741 141.551 38.6874Z" fill="#222529"/>
<path fill-rule="evenodd" clip-rule="evenodd" d="M97.6582 38.5974C97.6582 52.0281 86.7705 62.9158 73.3398 62.9158C59.909 62.9158 49.0213 52.0281 49.0213 38.5974C49.0213 25.1667 59.909 14.2789 73.3398 14.2789C86.7705 14.2789 97.6582 25.1667 97.6582 38.5974ZM83.2473 38.5974C83.2473 44.0692 78.8115 48.5049 73.3398 48.5049C67.868 48.5049 63.4322 44.0692 63.4322 38.5974C63.4322 33.1256 67.868 28.6899 73.3398 28.6899C78.8115 28.6899 83.2473 33.1256 83.2473 38.5974Z" fill="#1F8FFF"/>
<path d="M109.067 88.7354V74.3245H37.6126V88.7354H109.067Z" fill="#1F8FFF"/>
<path d="M40.0144 0V43.485C40.0144 49.7057 38.2491 54.4973 34.7184 57.8599C31.2437 61.2224 26.5362 62.9037 20.5956 62.9037C14.3749 62.9037 9.38713 61.1384 5.63228 57.6077C1.87743 54.077 0 49.0612 0 42.5603H14.2909C14.2909 45.0262 14.7952 46.9036 15.804 48.1926C16.8128 49.4255 18.2699 50.042 20.1753 50.042C21.9126 50.042 23.2577 49.4815 24.2104 48.3607C25.1631 47.2398 25.6395 45.6146 25.6395 43.485V0H40.0144Z" fill="#222529"/>
</svg>
