<svg width="132" height="24" viewBox="0 0 132 24" fill="none" xmlns="http://www.w3.org/2000/svg">
<path d="M51.6243 17.002C50.4555 17.002 49.4081 16.8125 48.4822 16.4336C47.5562 16.0547 46.8124 15.4938 46.2508 14.7511C45.7043 14.0084 45.4159 13.1141 45.3856 12.0682H49.5296C49.5903 12.6593 49.7952 13.1141 50.1443 13.4324C50.4935 13.7355 50.9489 13.8871 51.5105 13.8871C52.0873 13.8871 52.5427 13.7583 52.8767 13.5006C53.2106 13.2278 53.3776 12.8564 53.3776 12.3865C53.3776 11.9924 53.241 11.6665 52.9677 11.4088C52.7097 11.1512 52.3833 10.939 51.9886 10.7722C51.6092 10.6055 51.0627 10.416 50.3493 10.2038C49.3171 9.8855 48.4746 9.56718 47.8219 9.24887C47.1691 8.93056 46.6075 8.46068 46.1369 7.83921C45.6664 7.21775 45.4311 6.40681 45.4311 5.40641C45.4311 3.92096 45.97 2.76139 47.0477 1.92772C48.1255 1.07889 49.5296 0.65448 51.26 0.65448C53.0209 0.65448 54.4401 1.07889 55.5179 1.92772C56.5956 2.76139 57.1725 3.92853 57.2484 5.42914H53.036C53.0057 4.91378 52.8159 4.5121 52.4668 4.22411C52.1177 3.92095 51.6699 3.76938 51.1234 3.76938C50.6529 3.76938 50.2734 3.89822 49.985 4.1559C49.6965 4.39842 49.5523 4.75463 49.5523 5.22451C49.5523 5.73987 49.7952 6.14155 50.281 6.42955C50.7667 6.71754 51.5257 7.02828 52.5579 7.36174C53.5901 7.71037 54.425 8.04384 55.0625 8.36215C55.7152 8.68046 56.2769 9.14277 56.7474 9.74908C57.218 10.3554 57.4533 11.136 57.4533 12.0909C57.4533 13.0004 57.218 13.8265 56.7474 14.5692C56.292 15.3119 55.6241 15.9031 54.7437 16.3427C53.8633 16.7822 52.8235 17.002 51.6243 17.002Z" fill="#222529"/>
<path d="M72.9092 4.1559L64.9399 22.868H60.7504L63.6649 16.4109L58.4962 4.1559H62.8452L65.7824 12.0909L68.6969 4.1559H72.9092Z" fill="#222529"/>
<path d="M79.5671 17.0248C78.459 17.0248 77.4723 16.8353 76.6071 16.4563C75.7419 16.0774 75.0588 15.562 74.5579 14.9103C74.0569 14.2433 73.7761 13.5006 73.7154 12.6821H77.5634C77.6089 13.1217 77.8139 13.4779 78.1782 13.7507C78.5425 14.0235 78.9903 14.16 79.5216 14.16C80.0073 14.16 80.3792 14.069 80.6373 13.8871C80.9105 13.6901 81.0471 13.44 81.0471 13.1368C81.0471 12.773 80.8574 12.5078 80.4779 12.341C80.0984 12.1591 79.4836 11.9621 78.6336 11.7499C77.7228 11.5377 76.9638 11.3179 76.3566 11.0905C75.7494 10.848 75.2258 10.4766 74.7855 9.97644C74.3453 9.46108 74.1252 8.77141 74.1252 7.90742C74.1252 7.17985 74.3226 6.52049 74.7172 5.92935C75.1271 5.32304 75.7191 4.84557 76.4932 4.49695C77.2826 4.14832 78.2161 3.97401 79.2939 3.97401C80.8877 3.97401 82.14 4.36811 83.0508 5.15631C83.9767 5.9445 84.508 6.99038 84.6446 8.29394H81.0471C80.9864 7.85437 80.789 7.50574 80.4551 7.24806C80.1363 6.99038 79.7113 6.86154 79.18 6.86154C78.7246 6.86154 78.3755 6.95249 78.1326 7.13438C77.8898 7.30111 77.7683 7.53606 77.7683 7.83921C77.7683 8.20299 77.9581 8.47583 78.3376 8.65772C78.7322 8.83962 79.3394 9.02151 80.1591 9.2034C81.1002 9.44592 81.8668 9.68845 82.4588 9.93097C83.0508 10.1583 83.5669 10.5373 84.0071 11.0678C84.4625 11.5832 84.6978 12.2804 84.713 13.1596C84.713 13.9023 84.5004 14.5692 84.0754 15.1604C83.6656 15.7364 83.066 16.1911 82.2766 16.5246C81.5025 16.858 80.5993 17.0248 79.5671 17.0248Z" fill="#222529"/>
<path d="M94.2576 13.5461V16.8429H92.2766C90.8649 16.8429 89.7644 16.5018 88.9751 15.8197C88.1858 15.1225 87.7911 13.9932 87.7911 12.432V7.38448H86.2428V4.1559H87.7911V1.06374H91.6846V4.1559H94.2348V7.38448H91.6846V12.4775C91.6846 12.8564 91.7757 13.1292 91.9579 13.296C92.14 13.4627 92.4436 13.5461 92.8686 13.5461H94.2576Z" fill="#222529"/>
<path d="M108.484 10.2948C108.484 10.6585 108.462 11.0375 108.416 11.4316H99.6043C99.665 12.2198 99.9155 12.8261 100.356 13.2505C100.811 13.6598 101.365 13.8644 102.018 13.8644C102.989 13.8644 103.665 13.4551 104.044 12.6366H108.188C107.976 13.4703 107.589 14.2206 107.027 14.8875C106.481 15.5545 105.79 16.0774 104.955 16.4563C104.12 16.8353 103.187 17.0248 102.154 17.0248C100.91 17.0248 99.8016 16.7595 98.8301 16.229C97.8586 15.6985 97.0997 14.9406 96.5532 13.9553C96.0067 12.9701 95.7335 11.8181 95.7335 10.4994C95.7335 9.18066 95.9991 8.02868 96.5304 7.04343C97.0769 6.05819 97.8359 5.3003 98.8074 4.76978C99.7789 4.23927 100.895 3.97401 102.154 3.97401C103.384 3.97401 104.477 4.23169 105.433 4.74705C106.39 5.26241 107.133 5.99756 107.665 6.95249C108.211 7.90742 108.484 9.02151 108.484 10.2948ZM104.5 9.27161C104.5 8.60467 104.272 8.07415 103.817 7.68005C103.361 7.28596 102.792 7.08891 102.109 7.08891C101.456 7.08891 100.902 7.27838 100.447 7.65732C100.007 8.03626 99.7333 8.57436 99.6271 9.27161H104.5Z" fill="#222529"/>
<path d="M126.831 4.01948C128.41 4.01948 129.662 4.49695 130.588 5.45188C131.529 6.40681 132 7.73311 132 9.43077V16.8429H128.129V9.9537C128.129 9.13519 127.909 8.50615 127.469 8.06658C127.044 7.61185 126.452 7.38448 125.693 7.38448C124.934 7.38448 124.334 7.61185 123.894 8.06658C123.469 8.50615 123.257 9.13519 123.257 9.9537V16.8429H119.386V9.9537C119.386 9.13519 119.166 8.50615 118.726 8.06658C118.3 7.61185 117.708 7.38448 116.95 7.38448C116.191 7.38448 115.591 7.61185 115.151 8.06658C114.726 8.50615 114.513 9.13519 114.513 9.9537V16.8429H110.62V4.1559H114.513V5.74745C114.908 5.21694 115.424 4.8001 116.062 4.49695C116.699 4.17864 117.42 4.01948 118.225 4.01948C119.181 4.01948 120.031 4.22411 120.775 4.63337C121.534 5.04262 122.126 5.62619 122.551 6.38408C122.991 5.68682 123.591 5.11841 124.35 4.67884C125.109 4.23927 125.936 4.01948 126.831 4.01948Z" fill="#222529"/>
<path d="M32.7845 5.93911C33.1488 5.34796 33.6725 4.87049 34.3556 4.50671C35.0387 4.14292 35.8204 3.96103 36.7008 3.96103C37.7482 3.96103 38.6969 4.22629 39.547 4.75681C40.3971 5.28733 41.065 6.04521 41.5507 7.03046C42.0516 8.01571 42.3021 9.16011 42.3021 10.4637C42.3021 11.7672 42.0516 12.9192 41.5507 13.9196C41.065 14.9049 40.3971 15.6703 39.547 16.216C38.6969 16.7465 37.7482 17.0118 36.7008 17.0118C35.8052 17.0118 35.0235 16.8375 34.3556 16.4888C33.6877 16.1251 33.164 15.6476 32.7845 15.0564V16.8299H29V0L32.7845 0.00488281V5.93911ZM38.3402 10.4637C38.3402 9.49358 38.067 8.7357 37.5205 8.19002C36.9893 7.62919 36.3289 7.34877 35.5396 7.34877C34.7655 7.34877 34.1051 7.62919 33.5587 8.19002C33.0274 8.75086 32.7618 9.51632 32.7618 10.4864C32.7618 11.4565 33.0274 12.222 33.5587 12.7828C34.1051 13.3436 34.7655 13.624 35.5396 13.624C36.3138 13.624 36.9741 13.3436 37.5205 12.7828C38.067 12.2068 38.3402 11.4338 38.3402 10.4637Z" fill="#222529"/>
<path fill-rule="evenodd" clip-rule="evenodd" d="M26.4514 10.4393C26.4514 14.0719 23.5024 17.0167 19.8646 17.0167C16.2268 17.0167 13.2778 14.0719 13.2778 10.4393C13.2778 6.80676 16.2268 3.86198 19.8646 3.86198C23.5024 3.86198 26.4514 6.80676 26.4514 10.4393ZM22.5481 10.4393C22.5481 11.9193 21.3467 13.119 19.8646 13.119C18.3825 13.119 17.1811 11.9193 17.1811 10.4393C17.1811 8.95939 18.3825 7.75967 19.8646 7.75967C21.3467 7.75967 22.5481 8.95939 22.5481 10.4393Z" fill="#1F8FFF"/>
<path d="M29 23.5V20H11V23.5H29Z" fill="#1F8FFF"/>
<path d="M10.8382 0V11.7613C10.8382 13.4438 10.36 14.7397 9.40372 15.6492C8.46259 16.5587 7.18751 17.0134 5.57848 17.0134C3.89355 17.0134 2.54257 16.5359 1.52554 15.581C0.508514 14.6261 0 13.2695 0 11.5112H3.87078C3.87078 12.1781 4.0074 12.6859 4.28063 13.0345C4.55386 13.368 4.94853 13.5347 5.46463 13.5347C5.9352 13.5347 6.29951 13.3831 6.55756 13.08C6.81561 12.7768 6.94464 12.3373 6.94464 11.7613V0H10.8382Z" fill="#222529"/>
</svg>
